<svg width="1896" height="1341" xmlns="http://www.w3.org/2000/svg" xmlns:xlink="http://www.w3.org/1999/xlink" xml:space="preserve" overflow="hidden"><defs><clipPath id="clip0"><rect x="894" y="477" width="1896" height="1341"/></clipPath><clipPath id="clip1"><rect x="894" y="477" width="1895" height="1341"/></clipPath><clipPath id="clip2"><rect x="1224" y="530" width="1508" height="1028"/></clipPath><clipPath id="clip3"><rect x="1224" y="530" width="1508" height="1028"/></clipPath><clipPath id="clip4"><rect x="894" y="477" width="1895" height="1341"/></clipPath><clipPath id="clip5"><rect x="894" y="477" width="1895" height="1341"/></clipPath><clipPath id="clip6"><rect x="894" y="477" width="1895" height="1341"/></clipPath><clipPath id="clip7"><rect x="894" y="477" width="1895" height="1341"/></clipPath><clipPath id="clip8"><rect x="894" y="477" width="1895" height="1341"/></clipPath><clipPath id="clip9"><rect x="894" y="477" width="1895" height="1341"/></clipPath><clipPath id="clip10"><rect x="894" y="477" width="1895" height="1341"/></clipPath><clipPath id="clip11"><rect x="894" y="477" width="1895" height="1341"/></clipPath><clipPath id="clip12"><rect x="894" y="477" width="1895" height="1341"/></clipPath><clipPath id="clip13"><rect x="894" y="477" width="1895" height="1341"/></clipPath><clipPath id="clip14"><rect x="894" y="477" width="1895" height="1341"/></clipPath><clipPath id="clip15"><rect x="894" y="477" width="1895" height="1341"/></clipPath><clipPath id="clip16"><rect x="894" y="477" width="1895" height="1341"/></clipPath><clipPath id="clip17"><rect x="894" y="477" width="1895" height="1341"/></clipPath><clipPath id="clip18"><rect x="894" y="477" width="1895" height="1341"/></clipPath><clipPath id="clip19"><rect x="894" y="477" width="1895" height="1341"/></clipPath><clipPath id="clip20"><rect x="894" y="477" width="1895" height="1341"/></clipPath><clipPath id="clip21"><rect x="894" y="477" width="1895" height="1341"/></clipPath></defs><g clip-path="url(#clip0)" transform="translate(-894 -477)"><g clip-path="url(#clip1)"><rect x="1224.5" y="530.5" width="1505" height="1024" stroke="#000000" stroke-width="4.58333" stroke-linejoin="round" stroke-miterlimit="10" fill="none"/></g><g clip-path="url(#clip2)"><path d="M1322.04 1067.04 1460.05 1067.04 1460.05 1555 1322.04 1555ZM1824.06 1217.04 1961.06 1217.04 1961.06 1555 1824.06 1555ZM2325.08 1340.04 2463.08 1340.04 2463.08 1555 2325.08 1555Z" fill="#0000FF"/></g><g clip-path="url(#clip3)"><path d="M1491.05 1346.04 1629.05 1346.04 1629.05 1555 1491.05 1555ZM1993.07 804.026 2130.07 804.026 2130.07 1555 1993.07 1555ZM2494.08 678.022 2632.09 678.022 2632.09 1555 2494.08 1555Z" fill="#FF0000"/></g><g clip-path="url(#clip4)"><path d="M1224.5 1554.5 2729.5 1554.5" stroke="#000000" stroke-width="3.4375" stroke-linejoin="round" stroke-miterlimit="10" fill="none" fill-rule="evenodd"/></g><g clip-path="url(#clip5)"><text fill="#262626" font-family="Calibri,Calibri_MSFontService,sans-serif" font-weight="400" font-size="73" transform="matrix(1 0 0 1 1119.69 1576)">0</text></g><g clip-path="url(#clip6)"><text fill="#262626" font-family="Calibri,Calibri_MSFontService,sans-serif" font-weight="400" font-size="73" transform="matrix(1 0 0 1 1064.01 1405)">0.5</text></g><g clip-path="url(#clip7)"><text fill="#262626" font-family="Calibri,Calibri_MSFontService,sans-serif" font-weight="400" font-size="73" transform="matrix(1 0 0 1 1119.69 1235)">1</text></g><g clip-path="url(#clip8)"><text fill="#262626" font-family="Calibri,Calibri_MSFontService,sans-serif" font-weight="400" font-size="73" transform="matrix(1 0 0 1 1064.01 1064)">1.5</text></g><g clip-path="url(#clip9)"><text fill="#262626" font-family="Calibri,Calibri_MSFontService,sans-serif" font-weight="400" font-size="73" transform="matrix(1 0 0 1 1119.69 893)">2</text></g><g clip-path="url(#clip10)"><text fill="#262626" font-family="Calibri,Calibri_MSFontService,sans-serif" font-weight="400" font-size="73" transform="matrix(1 0 0 1 1064.01 723)">2.5</text></g><g clip-path="url(#clip11)"><text fill="#262626" font-family="Calibri,Calibri_MSFontService,sans-serif" font-weight="400" font-size="73" transform="matrix(1 0 0 1 1119.69 552)">3</text></g><g clip-path="url(#clip12)"><text fill="#262626" font-family="Calibri,Calibri_MSFontService,sans-serif" font-weight="400" font-size="83" transform="matrix(1 0 0 1 1391.96 1662)">2020</text></g><g clip-path="url(#clip13)"><text fill="#262626" font-family="Calibri,Calibri_MSFontService,sans-serif" font-weight="400" font-size="83" transform="matrix(1 0 0 1 1893.37 1662)">2021</text></g><g clip-path="url(#clip14)"><text fill="#262626" font-family="Calibri,Calibri_MSFontService,sans-serif" font-weight="400" font-size="83" transform="matrix(1 0 0 1 2394.79 1662)">2022</text></g><g clip-path="url(#clip15)"><text font-family="Times New Roman,Times New Roman_MSFontService,sans-serif" font-weight="700" font-size="83" transform="matrix(6.12323e-17 -1 1 6.12323e-17 1015.98 1348)">Average Replies</text></g><g clip-path="url(#clip16)"><text font-family="Times New Roman,Times New Roman_MSFontService,sans-serif" font-weight="700" font-size="83" transform="matrix(1 0 0 1 1895.56 1773)">Year</text></g><g clip-path="url(#clip17)"><rect x="1314.5" y="582.5" width="650" height="116" stroke="#FFFFFF" stroke-width="3.4375" stroke-linejoin="round" stroke-miterlimit="10" fill="none"/></g><g clip-path="url(#clip18)"><rect x="1374" y="620" width="40.9999" height="40.9999" fill="#0000FF"/></g><g clip-path="url(#clip19)"><text font-family="Calibri,Calibri_MSFontService,sans-serif" font-weight="400" font-size="73" transform="matrix(1 0 0 1 1433.09 662)">Tweet</text></g><g clip-path="url(#clip20)"><rect x="1677" y="620" width="39.9999" height="40.9999" fill="#FF0000"/></g><g clip-path="url(#clip21)"><text font-family="Calibri,Calibri_MSFontService,sans-serif" font-weight="400" font-size="73" transform="matrix(1 0 0 1 1735.42 662)">Meme</text></g><path d="M1386.5 1040.5 1872.58 1188.66" stroke="#0000FF" stroke-width="9.16667" stroke-miterlimit="8" fill="none" fill-rule="evenodd"/><path d="M1370.5 1040.5C1370.5 1032.22 1377.44 1025.5 1386 1025.5 1394.56 1025.5 1401.5 1032.22 1401.5 1040.5 1401.5 1048.78 1394.56 1055.5 1386 1055.5 1377.44 1055.5 1370.5 1048.78 1370.5 1040.5Z" stroke="#0000FF" stroke-width="4.58333" stroke-miterlimit="8" fill="#0000FF" fill-rule="evenodd"/><path d="M1872.5 1193.5C1872.5 1185.22 1879.22 1178.5 1887.5 1178.5 1895.78 1178.5 1902.5 1185.22 1902.5 1193.5 1902.5 1201.78 1895.78 1208.5 1887.5 1208.5 1879.22 1208.5 1872.5 1201.78 1872.5 1193.5Z" stroke="#0000FF" stroke-width="4.58333" stroke-miterlimit="8" fill="#0000FF" fill-rule="evenodd"/><path d="M1902.5 1193.5 2376.93 1307.25" stroke="#0000FF" stroke-width="9.16667" stroke-miterlimit="8" fill="none" fill-rule="evenodd"/><path d="M2372.5 1317.5C2372.5 1309.22 2379.22 1302.5 2387.5 1302.5 2395.78 1302.5 2402.5 1309.22 2402.5 1317.5 2402.5 1325.78 2395.78 1332.5 2387.5 1332.5 2379.22 1332.5 2372.5 1325.78 2372.5 1317.5Z" stroke="#0000FF" stroke-width="4.58333" stroke-miterlimit="8" fill="#0000FF" fill-rule="evenodd"/><path d="M0 0 487.032 516.057" stroke="#FF0000" stroke-width="9.16667" stroke-miterlimit="8" fill="none" fill-rule="evenodd" transform="matrix(1 0 0 -1 1566.5 1307.56)"/><path d="M0 0 470.063 116.891" stroke="#FF0000" stroke-width="9.16667" stroke-miterlimit="8" fill="#FF0000" fill-rule="evenodd" transform="matrix(1 0 0 -1 2075.5 770.391)"/><path d="M1543.5 1322.5C1543.5 1314.22 1550.22 1307.5 1558.5 1307.5 1566.78 1307.5 1573.5 1314.22 1573.5 1322.5 1573.5 1330.78 1566.78 1337.5 1558.5 1337.5 1550.22 1337.5 1543.5 1330.78 1543.5 1322.5Z" stroke="#FF0000" stroke-width="4.58333" stroke-miterlimit="8" fill="#FF0000" fill-rule="evenodd"/><path d="M2049.5 780.5C2049.5 772.216 2056.22 765.5 2064.5 765.5 2072.78 765.5 2079.5 772.216 2079.5 780.5 2079.5 788.784 2072.78 795.5 2064.5 795.5 2056.22 795.5 2049.5 788.784 2049.5 780.5Z" stroke="#FF0000" stroke-width="4.58333" stroke-miterlimit="8" fill="#FF0000" fill-rule="evenodd"/><path d="M2545.5 653C2545.5 644.992 2552.22 638.5 2560.5 638.5 2568.78 638.5 2575.5 644.992 2575.5 653 2575.5 661.008 2568.78 667.5 2560.5 667.5 2552.22 667.5 2545.5 661.008 2545.5 653Z" stroke="#FF0000" stroke-width="4.58333" stroke-miterlimit="8" fill="#FF0000" fill-rule="evenodd"/></g></svg>